# xmcd
#
# Track frame offsets: 
#        150
#        16818
#        33368
#        47059
#        59982
#        78489
#        90688
#        103561
#        119468
#        137279
#
# Disc length: 2017 seconds
#
# Revision: 0
# Processed by: cddbd v1.5.2PL0 Copyright (c) Steve Scherf et al.
# Submitted via: ExactAudioCopy v0.99pb4
#
DISCID=7e07df0a
DTITLE=Bart Kaëll - 30 - CD 1
DYEAR=2013
DGENRE=Chanson
TTITLE0=Onder De Blote Hemel
TTITLE1=Kap'tein
TTITLE2=Met Z'n Tweetjes
TTITLE3=Zondagmorgen
TTITLE4=Jouw Verjaardag
TTITLE5=Het Leven Is Zalig
TTITLE6=Dromendans
TTITLE7=Ik Wil Nog Wat Slapen
TTITLE8=Zonneschijn
TTITLE9='t Is Te Vroeg
EXTD=
EXTT0=
EXTT1=
EXTT2=
EXTT3=
EXTT4=
EXTT5=
EXTT6=
EXTT7=
EXTT8=
EXTT9=
PLAYORDER=
